<svg xmlns="http://www.w3.org/2000/svg" viewBox="0 0 1200 675" role="img" aria-hidden="true">
<defs>
 <pattern id="grid" width="36" height="36" patternUnits="userSpaceOnUse"><path d="M36 0H0V36" fill="none" stroke="#9eaaad" stroke-opacity=".09" stroke-width="1"/></pattern>
 <linearGradient id="ground" x2="1" y2="1"><stop stop-color="#101519"/><stop offset="1" stop-color="#1d2224"/></linearGradient>
</defs>
<style>.box{fill:none;stroke:#dde1df;stroke-opacity:.66;stroke-width:2.5}.line{fill:none;stroke:#dce2e0;stroke-opacity:.64;stroke-width:2.5;stroke-linecap:round;stroke-linejoin:round}.dim{fill:none;stroke:#c8d2d0;stroke-opacity:.35;stroke-width:2;stroke-linecap:round}.hot{fill:none;stroke:#f0a03a;stroke-width:3;stroke-linecap:round;stroke-linejoin:round}.node{fill:#f0a03a}.accent{fill:none;stroke:#f0a03a;stroke-width:3}.label{font:22px ui-monospace,monospace;fill:#e7e9e4;letter-spacing:3px}.small{font:17px ui-monospace,monospace;fill:#e7e9e4;letter-spacing:2px}</style>
<rect width="1200" height="675" fill="url(#ground)"/><rect width="1200" height="675" fill="url(#grid)"/>
<path d="M72 80h1056M72 578h1056" stroke="#a7b3b0" stroke-opacity=".35"/><path d="M72 80h192M72 578h192" stroke="#f0a03a" stroke-width="3"/>
<text x="78" y="122" fill="#f0a03a" font-family="ui-monospace,monospace" font-size="16" letter-spacing="3">FIG. 04</text>

 <g class="box"><rect x="142" y="225" width="240" height="224" rx="18"/><rect x="476" y="225" width="240" height="224" rx="18"/><rect x="810" y="225" width="240" height="224" rx="18"/></g>
 <path d="M382 337h94m240 0h94" class="hot"/><path d="M437 324l24 13-24 13m334-26l24 13-24 13" class="hot"/>
 <g class="label"><text x="184" y="338">HOST</text><text x="517" y="338">OUTBOX</text><text x="843" y="338">MUSUBI</text></g>
 <path d="M558 397h80m-418 0h80m674 0h30" class="dim"/><circle cx="596" cy="201" r="10" class="node"/><path d="M596 211v14" class="line"/>
 
<text x="76" y="626" fill="#dce2e0" font-family="ui-monospace,monospace" font-size="22" letter-spacing="4">CAPTURE / OUTBOX / MEMORY</text>
</svg>
